<svg width="7" height="9" viewBox="0 0 7 9" fill="none" xmlns="http://www.w3.org/2000/svg"> <path fill-rule="evenodd" clip-rule="evenodd" d="M3.86213 0.783155C4.42637 0.0038441 5.21065 0 5.21065 0C5.21065 0 5.32731 0.732739 4.76688 1.43872C4.16837 2.19245 3.48819 2.06914 3.48819 2.06914C3.48819 2.06914 3.36039 1.47627 3.86213 0.783155Z" fill="#707070"></path> <path fill-rule="evenodd" clip-rule="evenodd" d="M3.56002 2.58218C3.85032 2.58218 4.38888 2.16406 5.09008 2.16406C6.29697 2.16406 6.77177 3.06417 6.77177 3.06417C6.77177 3.06417 5.84318 3.56183 5.84318 4.76931C5.84318 6.13144 7 6.60086 7 6.60086C7 6.60086 6.19131 8.98655 5.0991 8.98655C4.59736 8.98655 4.20748 8.63215 3.67879 8.63215C3.14009 8.63215 2.60562 8.9997 2.25749 8.9997C1.26007 8.99985 0 6.73688 0 4.91775C0 3.12804 1.06654 2.1892 2.06692 2.1892C2.71734 2.18905 3.22205 2.58218 3.56002 2.58218Z" fill="#707070"></path> </svg>